<svg width="240" height="50" viewBox="0 0 240 50" fill="none" xmlns="http://www.w3.org/2000/svg">
<rect width="240" height="50" rx="4" fill="#21A038"/>
<path d="M68.625 29.1523C71.272 29.1523 72.916 27.3306 72.916 24.4233V24.4106C72.916 21.5098 71.2656 19.688 68.625 19.688C65.9907 19.688 64.334 21.5034 64.334 24.4106V24.4233C64.334 27.3369 65.9844 29.1523 68.625 29.1523ZM68.625 27.8955C66.8857 27.8955 65.7812 26.5562 65.7812 24.4233V24.4106C65.7812 22.2778 66.8921 20.9448 68.625 20.9448C70.3643 20.9448 71.4624 22.2842 71.4624 24.4106V24.4233C71.4624 26.5371 70.3833 27.8955 68.625 27.8955ZM74.2236 29H75.5947V23.4141H78.54V29H79.9175V22.3223H74.2236V29ZM83.4722 26.0039L83.6562 23.4141H85.9604V29H87.3315V22.3223H82.4502L82.209 25.9341C82.1265 27.1465 81.8916 27.8384 81.1997 27.8384C81.0283 27.8384 80.9077 27.813 80.8442 27.7939V28.9937C80.9395 29.0254 81.1299 29.0635 81.3901 29.0635C82.8882 29.0635 83.3389 27.8765 83.4722 26.0039ZM90.772 29.1206C91.6606 29.1206 92.4287 28.6636 92.8159 27.9463H92.8477V29H94.2188V24.3979C94.2188 23.0586 93.1841 22.1953 91.5527 22.1953C89.9087 22.1953 88.9121 23.0776 88.8169 24.2266L88.8105 24.2964H90.1055L90.1182 24.2393C90.2324 23.7061 90.7212 23.3315 91.5146 23.3315C92.3652 23.3315 92.8477 23.7759 92.8477 24.5122V25.0137L91.0259 25.1216C89.4453 25.2168 88.5439 25.9277 88.5439 27.0894V27.1021C88.5439 28.3018 89.439 29.1206 90.772 29.1206ZM89.9277 27.0703V27.0576C89.9277 26.4927 90.3848 26.1309 91.21 26.0801L92.8477 25.9785V26.499C92.8477 27.3687 92.1113 28.0225 91.1465 28.0225C90.4102 28.0225 89.9277 27.6543 89.9277 27.0703ZM100.643 22.3223H95.0884V23.4141H97.1768V29H98.5542V23.4141H100.643V22.3223ZM101.646 29H102.998L106.063 24.3091H106.121V29H107.485V22.3223H106.133L103.067 26.9941H103.004V22.3223H101.646V29ZM114.036 22.3223H108.482V23.4141H110.57V29H111.948V23.4141H114.036V22.3223ZM115.039 29H117.68C119.222 29 120.219 28.105 120.219 26.6958V26.6831C120.219 25.2803 119.222 24.3853 117.68 24.3853H116.41V22.3223H115.039V29ZM117.546 25.4707C118.321 25.4707 118.816 25.9468 118.816 26.6831V26.6958C118.816 27.4321 118.327 27.9146 117.546 27.9146H116.41V25.4707H117.546Z" fill="white"/>
<path d="M159.103 22.3931L160.871 21.0897H154.135V28.9103H157.658C159.637 28.9103 160.768 28.0156 160.768 26.454C160.768 24.9613 159.74 24.1396 157.873 24.1396H155.821V22.3931H159.103ZM157.585 25.4431C158.656 25.4431 159.155 25.8044 159.155 26.5271C159.155 27.2627 158.626 27.6112 157.585 27.6112H155.825V25.4431H157.585ZM151.235 27.2197C150.801 27.4606 150.297 27.5854 149.777 27.5854C148.254 27.5854 147.148 26.497 147.148 25.0043C147.148 23.5073 148.254 22.4232 149.777 22.4232C150.353 22.4232 150.87 22.5867 151.313 22.905L152.521 22.0146L152.44 21.9457C151.734 21.3263 150.788 20.995 149.708 20.995C148.538 20.995 147.475 21.3908 146.714 22.1092C145.953 22.8319 145.531 23.8471 145.531 24.9699C145.531 26.097 145.948 27.1251 146.71 27.8693C147.471 28.6135 148.534 29.0265 149.695 29.0265C150.913 29.0265 151.975 28.6006 152.693 27.8306C152.139 27.4219 151.601 27.0261 151.601 27.0261L151.235 27.2197ZM173.05 21.0897H169.828V28.9103H171.514V26.6949H173.045C175.102 26.6949 176.375 25.6152 176.375 23.8858C176.379 22.1608 175.102 21.0897 173.05 21.0897ZM173.011 25.3915H171.514V22.3931H173.011C174.091 22.3931 174.689 22.9265 174.689 23.8944C174.689 24.8623 174.095 25.3915 173.011 25.3915ZM166.489 22.3931L168.257 21.0897H162.342V28.9103H168.257V27.6069H164.029V25.6023H167.634V24.2988H164.029V22.3931H166.489ZM140.124 24.8666C140.124 24.9097 140.124 24.957 140.124 25C140.124 27.7574 137.882 29.9987 135.125 29.9987C132.368 29.9987 130.126 27.7574 130.126 25C130.126 22.2426 132.368 20.0013 135.125 20.0013C136.17 20.0013 137.138 20.324 137.943 20.8746L139.207 19.9411C138.093 19.0377 136.669 18.5 135.125 18.5C131.537 18.5 128.625 21.4123 128.625 25C128.625 28.592 131.537 31.5 135.125 31.5C138.713 31.5 141.625 28.5877 141.625 25C141.625 24.6042 141.591 24.2128 141.522 23.8342L140.124 24.8666ZM132.651 23.2664V25.1334L135.125 26.6863L141.049 22.32C140.838 21.8597 140.575 21.4252 140.27 21.0295L135.125 24.8193L132.651 23.2664Z" fill="white"/>
</svg>
